<svg width="66" height="54" viewBox="0 0 66 54" fill="none" xmlns="http://www.w3.org/2000/svg">
<g filter="url(#filter0_d_4_65)">
<path d="M56.2 0H9.8C6.61 0 4.029 2.5875 4.029 5.75L4 40.25C4 43.4125 6.61 46 9.8 46H56.2C59.39 46 62 43.4125 62 40.25V5.75C62 2.5875 59.39 0 56.2 0ZM55.04 12.2188L34.537 24.9263C33.609 25.5012 32.391 25.5012 31.463 24.9263L10.96 12.2188C10.6692 12.0569 10.4146 11.8383 10.2115 11.5761C10.0084 11.3138 9.86108 11.0135 9.77847 10.6932C9.69586 10.3729 9.67966 10.0393 9.73085 9.71263C9.78205 9.38595 9.89958 9.07296 10.0763 8.79261C10.2531 8.51227 10.4853 8.27039 10.7591 8.08161C11.0329 7.89284 11.3424 7.7611 11.669 7.69436C11.9956 7.62762 12.3325 7.62728 12.6593 7.69335C12.986 7.75942 13.2958 7.89053 13.57 8.07875L33 20.125L52.43 8.07875C52.7042 7.89053 53.014 7.75942 53.3407 7.69335C53.6675 7.62728 54.0044 7.62762 54.331 7.69436C54.6576 7.7611 54.9671 7.89284 55.2409 8.08161C55.5147 8.27039 55.7469 8.51227 55.9237 8.79261C56.1004 9.07296 56.218 9.38595 56.2691 9.71263C56.3203 10.0393 56.3041 10.3729 56.2215 10.6932C56.1389 11.0135 55.9916 11.3138 55.7885 11.5761C55.5854 11.8383 55.3308 12.0569 55.04 12.2188Z" fill="#85126C"/>
</g>
<defs>
<filter id="filter0_d_4_65" x="0" y="0" width="66" height="54" filterUnits="userSpaceOnUse" color-interpolation-filters="sRGB">
<feFlood flood-opacity="0" result="BackgroundImageFix"/>
<feColorMatrix in="SourceAlpha" type="matrix" values="0 0 0 0 0 0 0 0 0 0 0 0 0 0 0 0 0 0 127 0" result="hardAlpha"/>
<feOffset dy="4"/>
<feGaussianBlur stdDeviation="2"/>
<feComposite in2="hardAlpha" operator="out"/>
<feColorMatrix type="matrix" values="0 0 0 0 0 0 0 0 0 0 0 0 0 0 0 0 0 0 0.25 0"/>
<feBlend mode="normal" in2="BackgroundImageFix" result="effect1_dropShadow_4_65"/>
<feBlend mode="normal" in="SourceGraphic" in2="effect1_dropShadow_4_65" result="shape"/>
</filter>
</defs>
</svg>
