<svg width="47" height="47" viewBox="0 0 47 47" fill="none" xmlns="http://www.w3.org/2000/svg">
<g filter="url(#filter0_d_4_67)">
<path d="M37.2298 33.2304H31.4513V24.1807C31.4513 22.0227 31.4127 19.2448 28.4458 19.2448C25.4361 19.2448 24.9756 21.596 24.9756 24.0236V33.2298H19.1972V14.6201H24.7445V17.1633H24.8222C25.3773 16.214 26.1796 15.4331 27.1434 14.9037C28.1073 14.3744 29.1967 14.1163 30.2956 14.1571C36.1525 14.1571 37.2323 18.0096 37.2323 23.0214L37.2298 33.2304ZM12.6769 12.0764C10.8248 12.0767 9.32319 10.5755 9.32289 8.72345C9.32259 6.87141 10.8236 5.36975 12.6757 5.36945C14.5277 5.36899 16.0294 6.87019 16.0297 8.72223C16.0298 9.61162 15.6767 10.4646 15.0479 11.0937C14.4192 11.7227 13.5663 12.0762 12.6769 12.0764ZM15.5662 33.2305H9.7816V14.6201H15.5661V33.2304L15.5662 33.2305ZM40.1106 0.00283845H6.87793C5.30726 -0.0148334 4.0192 1.24337 4 2.81404V36.1854C4.01859 37.7568 5.3065 39.0162 6.87777 38.9998H40.1106C41.6853 39.0193 42.9782 37.7598 43 36.1854V2.81145C42.9776 1.23774 41.6845 -0.0203178 40.1106 0.000248608" fill="#0A66C2"/>
</g>
<defs>
<filter id="filter0_d_4_67" x="0" y="0" width="47" height="47" filterUnits="userSpaceOnUse" color-interpolation-filters="sRGB">
<feFlood flood-opacity="0" result="BackgroundImageFix"/>
<feColorMatrix in="SourceAlpha" type="matrix" values="0 0 0 0 0 0 0 0 0 0 0 0 0 0 0 0 0 0 127 0" result="hardAlpha"/>
<feOffset dy="4"/>
<feGaussianBlur stdDeviation="2"/>
<feComposite in2="hardAlpha" operator="out"/>
<feColorMatrix type="matrix" values="0 0 0 0 0 0 0 0 0 0 0 0 0 0 0 0 0 0 0.25 0"/>
<feBlend mode="normal" in2="BackgroundImageFix" result="effect1_dropShadow_4_67"/>
<feBlend mode="normal" in="SourceGraphic" in2="effect1_dropShadow_4_67" result="shape"/>
</filter>
</defs>
</svg>
